<svg width="156" height="16" viewBox="0 0 156 16" fill="none" xmlns="http://www.w3.org/2000/svg">
<g clip-path="url(#clip0_46_219)">
<path d="M111.704 7.89967C111.704 4.2168 118.498 1.58127 127.297 0.640219C123.217 2.05013 119.363 4.98579 119.363 8.24995C119.363 11.5141 123.076 13.9975 129.457 13.9975C134.742 13.9975 139.782 11.9884 139.782 8.78398C139.782 6.99106 138.408 6.9022 138.408 5.80442C138.408 4.91383 139.317 4.18679 140.796 4.18679C144.108 4.18679 146.151 5.98188 146.151 8.29765C146.151 12.2133 138.193 15.4524 129.702 15.4524C120.106 15.4524 111.704 11.4307 111.704 7.89967ZM156 8.10004C156 11.7832 149.206 14.4187 140.407 15.3598C144.486 13.9499 148.341 11.0142 148.341 7.74976C148.341 4.48588 144.627 2.00246 138.247 2.00246C132.962 2.00246 127.922 4.01128 127.922 7.216C127.922 9.00892 129.295 9.09779 129.295 10.1956C129.295 11.0862 128.387 11.8132 126.908 11.8132C123.596 11.8132 121.553 10.0181 121.553 7.70206C121.553 3.78665 129.511 0.547546 138.002 0.547546C147.597 0.547546 156 4.5693 156 8.10004Z" fill="white"/>
<path d="M4.79478 2.67958C4.79478 2.67958 2.80402 2.75236 2.45704 3.85314L2.20266 4.66277C2.20266 4.66277 1.80562 5.58662 2.68048 6.2117L9.22918 10.7511C9.22918 10.7511 9.8401 11.2393 8.86761 11.2759C6.45414 11.4032 4.14635 11.271 4.14635 11.271C3.48661 11.2083 3.72137 10.8135 3.72137 10.8135L3.77195 10.687H0.376932L0.0347386 11.8034C-0.162778 12.4742 0.521862 12.6978 1.08069 12.7973C2.46482 12.93 4.33254 12.9573 6.35727 12.9573C8.20159 12.9573 9.84262 12.9434 11.2174 12.8602C11.2174 12.8602 13.3571 12.7487 13.6337 11.9353L13.9759 10.8375C13.9759 10.8375 14.3971 10.0647 13.5811 9.52602L6.76238 4.79526C6.76238 4.79526 6.14895 4.30675 7.20145 4.24023C9.61417 4.1132 11.9225 4.24514 11.9225 4.24514C12.4788 4.27976 12.3132 4.58971 12.3132 4.58971L12.2395 4.8416H15.6172L15.9553 3.74055C16.1639 2.99962 15.4111 2.80607 14.9109 2.74909C13.5421 2.6177 11.7979 2.58962 9.79985 2.58907C7.95578 2.58853 6.1701 2.59671 4.79478 2.67958Z" fill="white"/>
<path d="M24.0231 2.65338C25.48 2.65338 25.639 3.4224 25.639 3.4224L28.5285 12.8343H24.3205L23.7386 10.985C23.7386 10.985 23.7182 10.8677 23.5232 10.8677H18.0483C18.0483 10.8677 17.9026 10.8582 17.8506 10.9354C17.799 11.0122 16.4682 12.8343 16.4682 12.8343H13.9712L20.5627 3.69963C20.5627 3.69963 21.161 2.66401 22.5421 2.66401L24.0231 2.65338ZM22.987 9.47938C23.3156 9.47965 23.2041 9.11954 23.2041 9.11954L21.9697 5.1826L19.0847 9.18116C18.8492 9.48674 19.2533 9.47938 19.2533 9.47938L22.987 9.47938Z" fill="white"/>
<path d="M32.0064 2.65802H36.0649L33.705 10.9043C33.705 10.9043 33.6318 11.3001 34.2611 11.3001H39.4234L38.959 12.8496H30.7017C29.0781 12.7899 29.3438 11.5749 29.3438 11.5749L32.0064 2.65802Z" fill="white"/>
<path d="M65.5943 8.81183C65.7536 8.46453 68.78 3.92541 68.779 3.86844C68.779 3.86844 69.4631 2.65399 70.7932 2.65399L71.6207 2.65344C72.793 2.65344 73.217 3.26407 73.2565 3.62446C73.2811 3.84935 75.0024 12.8379 75.0024 12.8379L70.8926 12.8336L69.5613 6.18587L65.509 12.2649C65.509 12.2649 64.9998 12.833 64.2419 12.8445H63.9367C63.3545 12.8407 62.4482 12.8407 62.2819 12.0389L61.177 6.26302L56.8032 12.8336H54.4189L60.8519 3.24855C60.8519 3.24855 61.2852 2.65401 62.3299 2.65401H63.1079C63.1079 2.65401 64.4208 2.62647 64.5884 3.46691L64.5995 3.49662L65.5943 8.81183Z" fill="white"/>
<path d="M102.954 12.83C102.954 12.83 104.388 12.9521 104.678 11.986L107.429 2.66457H105.066L103.066 9.39869L98.9128 3.54453C98.2997 2.60378 97.1035 2.65284 97.1035 2.65284L96.0294 2.65666C94.3571 2.65339 94.1599 3.73126 94.1599 3.73126L91.4814 12.8379H93.8453L95.8062 6.113L99.9774 12.0138C100.579 12.8738 101.731 12.8343 101.731 12.8343L102.954 12.83Z" fill="white"/>
<path d="M45.1324 11.3056C44.483 11.3056 44.7389 10.6944 44.7389 10.6944L46.3965 4.73449C46.3965 4.73449 46.5032 4.28715 47.169 4.28715H51.626C52.3992 4.28715 52.1363 4.87134 52.1363 4.87134C52.1363 4.87134 50.5119 10.6857 50.4601 10.849C50.4082 11.0123 50.3622 11.3056 49.8285 11.3056L45.1324 11.3056ZM41.8614 12.7569C43.2813 12.929 44.8176 12.9148 46.9048 12.9148C48.8062 12.9148 50.1473 12.9082 51.5649 12.8246C51.5649 12.8246 53.4764 12.8316 54.038 11.0788L56.0665 4.12493C56.3251 3.06505 55.1172 2.82134 54.6816 2.76845C53.2547 2.63542 51.7352 2.62152 49.6478 2.62152C47.7464 2.62152 46.4053 2.62834 44.9877 2.71203C44.9877 2.71203 42.9771 2.73983 42.5929 3.98372L40.3087 11.7379C40.1791 12.4841 41.4251 12.7043 41.8614 12.7569Z" fill="white"/>
<path d="M80.983 11.3056C80.3336 11.3056 80.5892 10.6944 80.5892 10.6944L82.2471 4.73449C82.2471 4.73449 82.3538 4.28715 83.0193 4.28715H87.4766C88.2498 4.28715 87.9869 4.87134 87.9869 4.87134C87.9869 4.87134 86.3625 10.6857 86.3104 10.849C86.2586 11.0123 86.2128 11.3056 85.6788 11.3056L80.983 11.3056ZM77.712 12.7569C79.1319 12.929 80.668 12.9148 82.7553 12.9148C84.6568 12.9148 85.9979 12.9082 87.4155 12.8246C87.4155 12.8246 89.327 12.8316 89.8883 11.0788L91.9168 4.12493C92.1755 3.06505 90.9677 2.82134 90.5322 2.76845C89.1051 2.63542 87.5858 2.62152 85.4984 2.62152C83.597 2.62152 82.2556 2.62834 80.838 2.71203C80.838 2.71203 78.8274 2.73983 78.4432 3.98372L76.1593 11.7379C76.0297 12.4841 77.2757 12.7043 77.712 12.7569Z" fill="white"/>
</g>
<defs>
<clipPath id="clip0_46_219">
<rect width="156" height="15" fill="white" transform="translate(0 0.5)"/>
</clipPath>
</defs>
</svg>
