<svg width="156" height="36" viewBox="0 0 156 36" fill="none" xmlns="http://www.w3.org/2000/svg">
<path d="M36.5479 27.3356C37.1439 27.1991 37.7995 26.7898 38.4551 26.858C39.6471 26.9945 40.1239 26.7898 41.0179 26.1758C41.6139 26.5169 42.3888 27.4038 43.9384 27.4038C44.4152 27.4038 45.0112 27.1309 44.892 26.5169C44.892 26.0393 45.7264 26.244 45.786 25.5618C45.9052 25.2206 45.786 25.2206 45.3092 24.8795C44.4152 24.2655 44.4152 23.1739 43.7 22.4917C43.7 22.3552 43.402 22.2188 43.402 22.0823C41.1371 15.0552 43.8192 17.4431 38.6339 10.8253C37.2035 9.59732 35.0579 6.7319 33.2103 6.86835C31.4222 6.93657 31.005 8.09638 29.7534 8.57395C28.1442 9.25619 27.1906 9.39264 25.8794 10.7571C25.045 11.5758 23.9722 10.5525 22.7802 11.9852C20.2769 14.9188 19.9789 12.1898 15.8665 15.8739C13.6613 17.9889 10.6812 16.488 13.0653 13.759C14.2573 12.7356 15.8069 11.5076 15.2705 9.66554C15.0321 8.30106 13.3037 7.82349 12.1713 7.61882C11.5753 7.48237 10.3832 6.52723 10.0852 6.25433C8.95283 7.61882 9.48923 10.8936 11.8733 11.2347C11.9925 11.2347 12.0521 11.3029 12.0521 11.4394L11.9925 11.7123C10.3832 13.2132 10.0256 13.8954 9.96604 15.601C9.84684 17.9207 11.5157 19.6945 13.6613 19.6945C14.0189 19.6945 14.3765 19.6945 14.7341 19.558L14.8533 19.6263C15.0321 20.7178 15.0917 22.0141 15.3897 22.4235L15.3301 22.7646C14.6149 23.515 13.1845 22.6963 12.7673 24.1291C12.5289 24.6748 12.5885 25.3571 12.0521 25.63C11.6945 25.63 11.5753 24.9477 11.0388 24.9477C10.5024 24.9477 9.60844 25.3571 9.25083 26.3122C8.83363 26.6533 8.41642 26.4487 8.23762 27.1991C8.11842 27.1991 8.05882 27.5403 8.11842 27.7449C8.11842 28.0178 7.99922 28.3589 7.88002 28.6318C7.46281 29.1776 7.88002 29.9281 8.47602 29.9963C8.95283 29.9963 9.25083 30.2692 9.42963 30.0646H9.48923C9.60844 29.8599 9.72764 29.9963 9.84684 30.0646C10.0852 30.0646 10.4428 30.2692 10.8004 30.201L10.9792 30.2692C11.8733 30.2692 12.1713 29.8599 12.4693 29.3141C12.4693 29.0412 12.6481 28.9047 12.7077 28.7001L12.9461 28.5636L13.5421 28.7001C14.9725 28.8365 15.3301 27.1991 16.4029 27.0627C16.7009 27.0627 17.1777 27.0627 18.2505 27.2674C18.9657 27.2674 19.6809 26.7216 20.3961 26.3122C20.6941 26.1076 20.9921 26.0393 21.2305 25.63C21.5286 25.2889 21.9458 23.4468 22.4226 23.4468C23.257 23.4468 24.0914 23.1057 24.9854 23.1057C26.0582 23.1057 27.131 23.3786 28.0846 22.9692L28.3826 23.0375C28.5018 23.2421 28.919 23.3786 28.7998 23.7197L28.621 23.8562C28.4422 23.8562 28.1442 23.8562 28.025 24.1291C27.9058 24.2655 27.6674 24.2655 27.5482 24.1291C26.9522 24.1973 25.343 23.9244 25.1642 24.8795C25.2834 25.63 25.8198 27.6085 26.9522 27.4038C26.9522 27.4038 27.131 27.4038 27.131 27.5403C27.5482 28.4954 28.323 29.1094 28.919 29.1094C29.5746 29.1094 31.2434 28.4272 32.4951 27.7449H33.0315C33.8063 27.6767 34.1043 27.4038 34.5215 26.3804C35.1175 25.6982 34.6407 27.7449 36.4883 27.3356H36.5479ZM35.3559 22.901C35.1771 23.1057 34.9983 23.1739 34.7599 23.5833C34.3427 23.3786 34.2831 22.7646 34.1639 22.4917L35.7731 22.1506C35.5347 22.4234 35.4155 22.5599 35.3559 22.901Z" fill="white"/>
<path d="M44.7731 25.1524C43.9983 24.6748 43.7003 23.6515 43.2235 22.8328C41.9718 21.4001 41.7334 18.8076 41.4354 16.6926C41.0778 14.6459 39.5282 13.2132 38.4554 11.644C37.5614 10.7571 35.1178 8.09637 33.9854 7.68703C32.4954 7.00479 31.1841 8.36927 29.8729 9.05151C28.8597 9.46085 27.7869 9.5973 26.8929 10.5524C25.4625 12.5992 24.6281 10.9618 22.9593 12.5992C20.5752 15.5328 19.6216 12.9403 16.2244 16.3515C15.3304 17.0337 14.4364 17.6477 13.3636 17.5795C11.6351 17.4431 11.0987 14.8506 12.41 13.6225C13.3636 12.3945 15.688 11.1665 14.5556 9.18796C13.3636 7.95992 11.9332 8.50572 10.5027 7.14124C9.84713 8.30105 10.6815 9.8702 11.7544 10.3478C12.2312 10.6207 13.2444 10.1431 13.4828 10.8936C13.006 11.9169 11.7544 12.4627 11.1583 13.4861C9.72793 15.3964 11.1583 18.6029 13.1848 18.7393C13.9596 19.0122 14.9728 18.2618 15.4496 18.6029C15.4496 19.2851 15.4496 19.8991 15.5688 20.5132C15.5688 21.1954 16.284 21.8776 15.9264 22.5599C15.3304 23.1739 14.5556 23.4468 13.7808 23.4468C13.3636 23.9244 13.304 24.5384 13.006 25.2206C12.708 25.8346 12.112 26.1075 11.6947 26.3804C11.4563 26.858 11.0987 27.4038 10.5623 27.472C10.2047 27.9496 10.1451 28.5636 10.0259 29.1776C11.5159 29.6552 11.814 29.4505 12.6484 27.9496C13.006 27.6085 13.4232 27.9496 13.7212 27.9496C14.5556 27.8131 15.2112 27.1991 15.8072 26.5851C18.0124 25.9029 17.9528 27.5402 20.5156 25.6982C20.9328 25.4935 21.1116 24.9477 21.2904 24.5384C21.4692 24.0608 22.0653 23.1739 21.35 22.901C19.4428 27.3356 16.1648 23.7197 13.602 27.0627C13.2444 27.1991 13.602 26.5169 13.602 26.3804C15.4496 23.3786 19.562 26.0393 20.9924 22.0823C21.2308 21.4683 21.1116 19.0805 21.7076 19.1487C21.7672 19.1487 21.9461 19.1487 21.9461 19.3534C21.35 22.287 21.7672 23.1739 24.4493 22.6281C25.4029 22.3552 28.0849 23.4468 28.0253 21.9459C28.0253 21.673 27.7869 21.5365 28.0253 21.3318L28.3233 21.4001C28.5021 22.5599 29.3961 23.4468 30.2901 23.9926C32.0186 25.3571 31.3033 27.0627 29.2769 26.9945C28.6809 26.5851 28.4425 25.8346 27.9657 25.2206C27.3697 24.6066 26.6545 24.8795 25.9989 25.0842C25.6413 25.63 26.4161 26.3122 26.5949 26.858C26.8929 27.0627 27.3101 26.7216 27.5485 27.1309C27.7869 27.5402 27.9061 27.9496 28.2637 28.2225C29.3365 29.3823 31.4821 27.4038 32.6146 27.2673C33.5682 27.4038 34.045 26.3804 34.4026 25.5617C34.8794 24.4019 33.449 23.2421 33.3298 22.2188C33.0318 22.1505 32.555 21.8094 32.3166 22.2188C32.4954 22.7646 33.5086 24.6066 33.5086 25.2206C33.3298 25.63 33.0318 26.5851 32.555 26.5169C32.6742 26.0393 32.853 25.4935 32.853 24.9477C32.6146 24.3337 31.6609 22.6281 31.6013 22.0141C31.7801 21.4683 32.7934 21.8094 33.151 21.1954C33.5682 20.4449 33.747 19.6945 33.8066 18.7393C33.8066 18.6029 33.9258 18.5347 33.9854 18.5347C34.5814 18.944 33.9854 21.059 33.6278 21.4683C33.6278 22.1505 34.8198 21.7412 35.0582 21.4683C35.535 21.6047 36.4886 21.059 36.727 21.4683C36.429 21.8094 36.2502 22.287 36.131 22.8328C35.7734 23.2421 35.1178 23.6515 35.1178 24.3337C35.237 24.7431 35.7138 24.0608 35.7138 24.6066C35.237 25.2888 35.2966 25.5617 35.4158 26.3804C36.0118 27.2673 37.025 26.5169 37.7402 26.3122C38.9322 25.7664 40.1838 26.5851 41.0778 25.2206C41.3758 25.2206 41.5546 25.3571 41.6738 25.63C42.0109 26.03 42.4202 26.341 42.8732 26.5414C43.3261 26.7417 43.8118 26.8265 44.2963 26.7898C44.7135 26.4487 43.8195 26.244 43.7003 26.1075C43.2831 25.8346 42.7467 25.4253 42.6275 24.8795C42.4487 24.0608 41.9718 23.3786 41.6738 22.6281C43.0447 22.6281 43.2235 26.0393 45.2499 25.5617C45.3691 25.4935 45.3691 25.3571 45.3095 25.2888L44.7731 25.1524ZM34.641 14.7141L34.4026 14.7823C34.2238 14.1001 34.2238 13.4179 33.8662 12.7356C33.6874 12.5992 33.5086 12.3263 33.6278 12.0534C33.747 11.9169 33.8662 11.9169 33.9854 11.9851C34.5814 12.4627 34.5814 13.0767 34.641 13.8954C34.7602 14.0319 34.7006 14.4412 34.641 14.7141ZM39.5878 24.4702C39.3154 24.5531 39.0353 24.5989 38.7534 24.6066H38.6938C38.3362 24.1973 39.0514 23.4468 39.4686 23.515H39.6474C39.8858 23.5832 39.8262 24.1973 39.6474 24.4702M41.1374 20.4449C41.1374 20.5814 41.0182 20.9225 40.8394 20.9225C40.7202 20.9225 40.6606 20.9225 40.6606 20.7861C40.6606 20.3085 40.601 19.7627 40.2434 19.4216C39.4686 18.0571 39.2898 19.8309 38.9918 19.6262C38.813 19.2169 39.111 18.8076 39.2302 18.4664L39.409 18.1935C39.5282 17.3066 40.2434 17.7842 40.3626 18.33C40.7798 18.8758 41.2566 19.558 41.197 20.2403V20.4449M10.5623 26.7898C10.9795 26.5169 11.2179 26.0393 11.3967 25.63C11.2775 25.3571 11.0987 25.0842 10.8007 25.2206L9.90673 25.9029C9.72793 26.3804 10.1451 26.9262 10.5623 26.7898ZM9.25113 26.7898C8.53592 27.1309 8.89352 28.1543 8.47632 28.6318C8.47632 28.7001 8.35712 28.8365 8.47632 28.9047L9.37033 29.1776L9.78753 27.3356C9.66833 27.1309 9.48953 26.858 9.19153 26.7898M28.7405 25.2888C28.9789 25.63 28.9789 26.1075 29.3365 26.3804C29.6345 26.3804 30.0517 26.3122 30.2901 26.0393C30.5285 25.9029 30.2901 25.6982 30.1709 25.4935C29.9921 25.2206 30.1709 24.6748 29.6941 24.6748C29.2769 24.7431 28.7405 24.6748 28.3233 24.8113C28.3233 25.016 28.6809 25.016 28.7405 25.2888Z" fill="#DB0A40"/>
<path d="M58.3619 20.5814C58.3023 19.4215 57.8851 18.1935 57.1699 17.3748C56.7104 19.3153 55.9427 21.1424 54.9051 22.7645C54.3687 23.7197 53.4151 23.7197 52.8191 24.6066C52.6403 24.5384 52.6999 24.4019 52.5211 24.6066C53.2959 23.7197 52.4019 24.1972 52.7595 23.7197C54.0707 22.0823 55.2627 20.5814 55.7395 18.2617L55.2627 19.0122L55.8587 16.2832L55.6203 16.1468C54.9617 19.2889 53.3315 22.0517 51.031 23.9243C47.8722 26.5169 50.5542 25.6299 51.031 25.0842C47.0974 29.7916 38.2169 32.7935 33.1509 28.0178C33.8661 28.8365 34.7601 29.7916 35.6541 30.4056C35.1177 30.2692 34.7601 29.7916 34.2237 29.6552C34.2237 29.6552 35.4157 31.429 39.0513 31.9066L39.7069 31.9748C44.5942 32.4524 44.8922 31.429 48.349 30.6103C48.4682 30.6785 47.2166 31.429 45.4882 31.9748C42.7466 33.1346 39.5877 32.2477 37.3229 31.9748C37.3229 31.9748 37.7401 32.2477 39.5877 32.9981C39.4089 32.9981 38.8129 33.1346 36.3097 31.9066C42.4486 36 49.0642 32.8617 54.4879 28.2907L54.6667 28.3589C54.6667 28.4954 54.6667 28.4954 54.1899 29.0411C55.1435 28.2225 55.6203 26.9262 56.5739 26.1075C56.0253 27.231 55.3208 28.2448 54.4879 29.1094C52.5328 31.2897 50.1374 32.8833 47.5146 33.7486L46.7994 33.9533L47.5742 33.8168C47.2166 34.0215 46.7994 34.0897 45.7862 34.3626C51.8655 33.271 58.1831 27.8131 58.3023 20.5814H58.3619Z" fill="url(#paint0_linear_46_53)"/>
<path d="M52.1633 30.1327C49.7197 31.8383 47.0376 33.4075 44.0576 33.6804C47.6337 33.8851 51.9249 30.9514 54.1897 28.4954L52.1633 30.0645V30.1327Z" fill="url(#paint1_linear_46_53)"/>
<path d="M48.2298 30.6104C44.8326 31.429 44.6538 32.3842 39.707 31.9748C39.3494 32.1113 37.3229 31.9748 36.9653 31.8384L37.2633 31.9748C37.7401 31.9748 41.1374 32.7935 42.2698 32.6571C43.6406 32.6571 48.1106 31.1561 48.2298 30.6104Z" fill="url(#paint2_linear_46_53)"/>
<path d="M55.9779 16.3515H55.7991C55.6314 17.2697 55.4326 18.18 55.2031 19.0805C55.3819 18.7393 55.5607 18.6711 55.7991 18.3982C55.2031 20.5814 54.011 22.0823 52.6998 23.7197C52.3422 24.1291 53.2362 23.7197 52.4614 24.6066C52.6402 24.4019 52.5806 24.5384 52.7594 24.6066C53.3554 23.7197 54.309 23.7197 54.8454 22.7646C55.9011 21.1706 56.6893 19.3662 57.1699 17.4431C56.8376 16.9949 56.4328 16.6242 55.9779 16.3515Z" fill="url(#paint3_linear_46_53)"/>
<path d="M39.8855 28.5636C37.5611 27.1309 39.2299 28.086 41.1967 28.6318C42.6271 29.0412 44.1767 29.1776 45.6071 29.1094C47.9912 28.0178 49.958 26.5169 51.0904 25.0842C50.554 25.6982 47.9316 26.5169 51.0904 23.9244C53.4744 22.0141 54.8452 19.2851 55.62 16.1468C55.024 15.8739 54.3684 15.6692 53.7128 15.601C52.7592 18.1935 52.5804 19.9674 50.4944 21.4001C48.17 23.1057 49.66 22.6963 49.66 22.6963L50.1964 22.3552C49.3024 23.9926 47.6932 25.0842 45.8455 25.5617C45.7859 26.244 44.8919 25.9711 44.9515 26.5169C45.0111 27.1309 44.4747 27.4038 43.9979 27.3356C42.4483 27.3356 41.6735 26.5169 41.0179 26.1075C40.0643 26.7898 39.5875 26.9262 38.3359 26.7898C37.7399 26.7898 37.1439 27.1309 36.5479 27.3356C37.4419 28.2225 41.1967 29.3823 39.8259 28.5636H39.8855ZM51.6864 21.4001C52.044 20.4449 52.938 19.8991 53.2956 18.6711C53.236 18.8758 53.534 18.944 53.6532 18.944C54.1896 18.8758 54.2492 18.0571 54.3684 17.8524C54.2492 19.6945 53.1764 21.2636 51.9844 22.4916C51.9029 22.4378 51.8104 22.4094 51.7162 22.4094C51.622 22.4094 51.5295 22.4378 51.448 22.4916C51.448 22.0823 52.044 21.6047 51.6864 21.4001Z" fill="url(#paint4_linear_46_53)"/>
<path d="M53.7726 10.5524C52.2826 9.59731 50.5542 9.32441 49.0046 8.57395C51.3886 9.25619 54.2494 9.80198 56.0375 11.8487L56.1567 11.9852C56.3355 12.1216 56.5143 12.5309 56.7527 12.3263C52.8786 3.93471 41.5545 4.88985 36.1309 8.4375L37.0249 9.25619C38.0977 8.30105 42.2697 7.61881 42.6273 7.68704C41.1969 8.02816 38.9321 9.05152 37.5017 9.73376L37.6805 9.93843C40.9746 8.55075 44.5243 8.15147 47.9914 8.77862C45.5477 9.11974 41.1373 9.05152 38.2169 10.416C38.9917 11.0982 39.7665 12.3945 40.4221 13.2814C45.1901 10.6207 47.9318 10.5524 50.3754 10.8936C50.6138 11.03 48.647 11.1665 49.1834 11.3029C49.6602 11.4394 50.6734 11.0982 50.8522 11.0982H52.223C53.3554 11.4394 52.2826 11.5758 51.925 11.5076H51.329L49.9582 11.7805C49.839 11.7805 48.5278 11.7805 48.7662 11.9852C49.0046 11.9852 50.0774 12.1898 50.3754 12.1216L50.8522 12.0534C50.9714 11.9852 51.2694 11.9169 51.329 12.0534C50.9118 13.0767 49.7794 12.3263 48.945 12.5309C48.1702 12.5992 47.3954 13.0085 47.2762 12.8721C49.7198 11.0982 43.7001 13.6908 43.8193 14.1683C43.8193 14.5094 44.7729 13.9637 45.0113 14.0319C45.3689 14.0319 45.965 13.6908 46.3822 13.5543C46.6802 13.5543 46.7994 13.759 47.0974 13.6908C47.753 13.6908 48.349 13.3496 49.0046 13.145L49.4218 13.4179C50.6138 14.6459 51.2694 13.6225 52.5806 14.1001C52.819 14.1001 52.5806 14.2366 52.4614 14.3048C51.8058 14.8506 50.9714 14.987 50.137 14.987L49.7794 15.0552L48.945 15.1917C48.2298 15.1917 47.455 15.3281 46.7994 15.7375C46.5014 15.7375 46.2034 15.8057 46.0246 16.0104C45.8458 16.2151 45.5478 16.1468 45.4286 16.3515C45.0709 16.5562 42.8657 17.0337 43.1041 17.6478C46.7994 17.0337 51.1502 14.1001 55.7394 16.2833C57.6467 17.4431 58.7195 19.3534 57.9447 23.1057L58.0639 22.8328C58.2427 21.9459 58.4215 21.1954 58.4215 20.3085C58.8983 17.102 56.8123 12.5309 53.713 10.6207L53.7726 10.5524ZM49.4814 7.41414C50.0774 7.55059 51.3886 7.82348 51.7462 8.30105C50.733 8.30105 50.1966 7.75526 50.1966 7.82348C50.0178 7.75526 49.3622 7.48236 49.4814 7.41414Z" fill="#FAD50A"/>
<path d="M37.5615 9.66552L37.1443 9.25618C38.2171 8.30104 42.27 7.75525 42.6872 7.75525L40.8991 8.36926C39.7713 8.77341 38.6579 9.22859 37.5615 9.73375V9.66552ZM58.8985 16.4879C58.3621 10.8936 56.6337 6.04964 50.7928 4.34404C54.3689 5.3674 54.6669 5.9132 55.1437 6.25432C52.3424 3.25245 47.8128 2.22909 43.2236 3.11601C46.4828 2.02387 49.9847 2.41495 52.9981 4.20759C49.9815 2.16127 46.4589 1.31276 42.9776 1.79391C39.4964 2.27506 36.2515 4.05893 33.7471 6.86833C34.6411 7.07301 35.4755 7.75525 36.1907 8.36926C41.6739 5.02628 52.9981 4.07114 56.8125 12.3945C56.5741 12.5309 56.3953 12.1216 56.2165 11.9851L56.0973 11.9169C54.3093 9.87019 51.4484 9.18795 49.0048 8.64216C50.614 9.3244 52.3425 9.5973 53.8325 10.6207C57.8257 13.2132 59.5541 18.4664 58.1833 22.6963C58.7793 20.6496 59.0177 18.6029 58.8985 16.4197V16.4879ZM45.6076 8.43749C43.1044 8.43749 39.9455 8.98328 37.7999 9.87019L38.2767 10.3478C41.1863 9.40896 44.1938 8.92698 47.2168 8.91506C49.4816 8.77861 46.442 8.43749 45.6076 8.43749ZM50.2564 7.82347C50.2564 7.82347 50.7928 8.36926 51.806 8.36926C51.3888 7.89169 50.1968 7.68702 49.5412 7.48235L50.2564 7.82347Z" fill="#F2940A"/>
<path fill-rule="evenodd" clip-rule="evenodd" d="M129.346 23.1739C129.346 24.4019 130.24 25.4253 131.373 25.4253C132.505 25.4253 133.399 24.4019 133.399 23.1739V15.8057H136.916V23.9926C136.916 26.7215 134.412 28.9729 131.313 28.9729C128.214 28.9729 125.711 26.7215 125.711 23.9926V15.8057H129.287V23.1739H129.346ZM144.962 28.4954H148.538V7.00476H144.962V28.4954ZM138.942 28.4954H142.518V7.00476H138.942V28.4954ZM73.5005 11.5076H71.5337V28.4954H67.7192V8.02812H74.2753C77.2553 8.02812 79.6394 10.7571 79.6394 14.1001C79.6394 16.8973 77.9109 19.3533 75.5269 19.9673L80.7718 28.5636H76.3017L72.4873 21.8776V16.9655H73.3813C74.8117 16.9655 75.9441 15.7374 75.9441 14.3047C75.9523 13.9349 75.8947 13.5669 75.7748 13.2233C75.6549 12.8797 75.4752 12.5676 75.2466 12.306C75.0181 12.0443 74.7454 11.8386 74.4452 11.7014C74.1451 11.5641 73.8236 11.4982 73.5005 11.5076Z" fill="#D2003C"/>
<path fill-rule="evenodd" clip-rule="evenodd" d="M84.1694 20.6496C84.1098 19.2851 85.0038 18.0571 86.2554 17.9888C87.4474 17.9206 88.5202 18.944 88.5798 20.3767V20.6496H84.1694ZM92.0367 22.9692L92.0963 22.0823C92.1559 17.6477 89.593 15.1917 86.315 15.1917C84.7447 15.2096 83.244 15.9363 82.1391 17.2139C81.0342 18.4914 80.4145 20.2164 80.4146 22.0141C80.4145 23.8117 81.0342 25.5368 82.1391 26.8143C83.244 28.0918 84.7447 28.8185 86.315 28.8365C88.8182 28.8365 90.7255 27.5402 91.7387 25.5617L88.8182 23.9926C88.6012 24.4653 88.2756 24.8613 87.8765 25.1378C87.4774 25.4143 87.0199 25.5609 86.5534 25.5617C85.1826 25.5617 84.1098 24.4019 84.1098 23.0374V22.901L92.0367 22.9692ZM100.142 25.357C98.7119 25.357 97.5199 23.8561 97.5199 22.0823C97.5199 20.2402 98.7119 18.8075 100.142 18.8075C101.573 18.8075 102.765 20.3085 102.765 22.0823C102.765 23.9243 101.573 25.357 100.142 25.357ZM106.281 28.4954V7.00476H102.705V17.1702C101.754 16.088 100.47 15.4757 99.1291 15.4646C96.2087 15.4646 93.7651 18.4664 93.7651 22.1505C93.7651 25.8346 96.1491 28.8365 99.1291 28.8365C100.5 28.8365 101.811 28.1542 102.765 27.0627V28.4954H106.281ZM118.44 24.9477H115.042V11.5076H117.427C118.499 11.5076 119.334 12.5991 119.334 13.8272C119.334 15.0552 118.499 16.0103 117.427 16.0103H116.175V19.6944H118.44C119.691 19.6944 120.645 20.8543 120.645 22.287V22.3552C120.585 23.7879 119.811 24.8795 118.44 24.9477ZM121.42 17.3748C121.909 16.8795 122.301 16.2703 122.568 15.5879C122.835 14.9055 122.972 14.1656 122.969 13.4178C122.953 12.0447 122.485 10.7292 121.658 9.73373C120.824 8.64214 119.274 8.09635 117.248 8.09635H111.168V28.5636H119.095C122.135 28.4954 124.579 25.9028 124.579 22.6963C124.519 20.3085 123.804 18.6711 121.42 17.3748Z" fill="#D2003C"/>
<defs>
<linearGradient id="paint0_linear_46_53" x1="689.571" y1="496.747" x2="6191.56" y2="496.747" gradientUnits="userSpaceOnUse">
<stop stop-color="#1885C8"/>
<stop offset="0.14" stop-color="#1881C3"/>
<stop offset="0.32" stop-color="#1A74B3"/>
<stop offset="0.52" stop-color="#1B6099"/>
<stop offset="0.73" stop-color="#1E4475"/>
<stop offset="0.96" stop-color="#212047"/>
<stop offset="1" stop-color="#22183D"/>
</linearGradient>
<linearGradient id="paint1_linear_46_53" x1="106.413" y1="175.158" x2="2610.99" y2="101.173" gradientUnits="userSpaceOnUse">
<stop offset="0.24" stop-color="#52BCE8"/>
<stop offset="1" stop-color="#3F88B9"/>
</linearGradient>
<linearGradient id="paint2_linear_46_53" x1="36.9653" y1="84.9063" x2="48.2298" y2="84.9063" gradientUnits="userSpaceOnUse">
<stop offset="0.54" stop-color="#52BCE8"/>
<stop offset="1" stop-color="#49A4D3"/>
</linearGradient>
<linearGradient id="paint3_linear_46_53" x1="465.937" y1="245.477" x2="779.146" y2="232.25" gradientUnits="userSpaceOnUse">
<stop stop-color="#3A78AC"/>
<stop offset="0.29" stop-color="#34689E"/>
<stop offset="0.86" stop-color="#253E78"/>
<stop offset="1" stop-color="#21336E"/>
</linearGradient>
<linearGradient id="paint4_linear_46_53" x1="-35.6823" y1="440.957" x2="4749.7" y2="235.37" gradientUnits="userSpaceOnUse">
<stop stop-color="#52BCE8"/>
<stop offset="0.25" stop-color="#51B9E6"/>
<stop offset="0.41" stop-color="#4EB0DE"/>
<stop offset="0.56" stop-color="#48A1D0"/>
<stop offset="0.69" stop-color="#418CBD"/>
<stop offset="0.78" stop-color="#3977AB"/>
<stop offset="0.85" stop-color="#33669C"/>
<stop offset="0.98" stop-color="#243B75"/>
<stop offset="1" stop-color="#21336E"/>
</linearGradient>
</defs>
</svg>
