<svg width="38" height="38" viewBox="0 0 38 38" fill="none" xmlns="http://www.w3.org/2000/svg">
<g clip-path="url(#clip0_46_129)">
<path fill-rule="evenodd" clip-rule="evenodd" d="M38 38V0H0V38H38Z" fill="#DA2427"/>
<path fill-rule="evenodd" clip-rule="evenodd" d="M24.1021 25.3161L33.757 25.3167V21.6969C33.757 16.3523 29.4496 12.0187 24.1066 12.0187H24.1021V25.3161ZM15.2206 16.1851H14.3524V12.764H13.0955V12.029H16.4775V12.764H15.2206V16.1851ZM17.571 14.3209V16.1851H16.7029V12.029H17.571V13.6042H19.1907V12.029H20.0596V16.1851H19.1907V14.3209H17.571ZM23.5339 12.764H21.3498V13.6384H23.2731V14.3729H21.3498V15.4499H23.5388V16.1849H20.5411V12.029H23.5339V12.764ZM7.21515 16.5957H8.02679V20.7511H7.15793L5.46224 17.788H5.44994V20.7514H4.63965V16.5957H5.55344L7.20353 19.4895H7.21515V16.5957ZM10.4498 20.1264C10.9184 20.1264 11.5773 19.8369 11.5773 18.6734C11.5773 17.5106 10.9181 17.22 10.4496 17.22C9.98111 17.22 9.31991 17.5106 9.31991 18.6734C9.31991 19.8369 9.98133 20.1264 10.4498 20.1264ZM10.4498 16.4851C10.9993 16.4851 12.4453 16.7229 12.4453 18.6734C12.4453 20.6235 10.9991 20.8613 10.4496 20.8613C9.89885 20.8613 8.45172 20.6235 8.45172 18.6734C8.45172 16.7229 9.89907 16.4851 10.4498 16.4851ZM18.6087 20.7514H17.7396V17.3302H16.4834V16.5957H19.8631V17.3302H18.6087V20.7514ZM21.0429 18.8882V20.7514H20.1756V16.5957H21.0429V18.1694H22.6635V16.5957H23.5339V20.7511H22.6635V18.8882H21.0429ZM11.1412 25.3174H10.273V21.1615H13.2303V21.8969H11.1412V22.8347H12.9708V23.5703H11.1412V25.3174ZM14.1468 23.7433H15.2048L14.69 22.0992H14.6788L14.1468 23.7433ZM13.6249 25.3174H12.7104L14.1931 21.1615H15.1945L16.6579 25.3174H15.714L15.448 24.4606H13.915L13.6249 25.3174ZM19.3246 22.5219C19.2567 22.2731 19.1219 21.8044 18.4037 21.8044C17.9873 21.8044 17.3732 22.082 17.3732 23.2565C17.3732 24.0037 17.6685 24.6756 18.4037 24.6756C18.8852 24.6756 19.2205 24.4029 19.3246 23.8942H20.1922C20.0191 24.7968 19.4295 25.4276 18.3869 25.4276C17.2814 25.4276 16.4876 24.6819 16.4876 23.2455C16.4876 21.7928 17.327 21.0518 18.3992 21.0518C19.6434 21.0518 20.1459 21.9088 20.1919 22.5219H19.3246ZM23.5339 21.8969H21.3498V22.7703H23.2731V23.5057H21.3498V24.5824H23.5388V25.3174H20.5411V21.1615H23.5339V21.8969ZM14.7376 18.4188C15.1882 18.4188 15.4075 18.2624 15.4075 17.8522C15.4075 17.6336 15.3092 17.3101 14.8008 17.3101H13.721V18.4188H14.7376ZM12.8711 16.5935H14.9687C16.0714 16.5935 16.2728 17.4076 16.2728 17.7668C16.2728 18.2221 16.0417 18.6151 15.6319 18.7539C15.973 18.9039 16.1583 19.0306 16.1583 19.8045C16.1583 20.4111 16.1583 20.5611 16.3428 20.6309V20.74H15.3827C15.3255 20.5439 15.2917 20.3296 15.2917 19.9028C15.2917 19.3369 15.2577 19.1171 14.6153 19.1171H13.721V20.74H12.8711V16.5935Z" fill="white"/>
<path d="M24.1022 16.293V16.4689H24.0144V16.293H24.1022ZM24.5368 16.4698L24.1022 16.4689V16.293L24.5368 16.2937V16.4698ZM29.8016 21.5603H29.6256L29.6189 21.2979L29.5993 21.0395L29.5669 20.7846L29.5221 20.5343L29.4656 20.2877L29.3967 20.0463L29.3167 19.8098L29.2257 19.5787L29.1238 19.3534L29.0116 19.1339L28.8891 18.9206L28.7566 18.7143L28.6146 18.5147L28.4637 18.322L28.3037 18.1376L28.1351 17.9606L27.9586 17.7922L27.7739 17.6322L27.5817 17.4809L27.3821 17.3391L27.1758 17.2066L26.9625 17.0839L26.743 16.9717L26.5179 16.8697L26.2866 16.7788L26.0501 16.6985L25.8089 16.6299L25.5625 16.5731L25.3122 16.5284L25.0574 16.496L24.7992 16.4763L24.5368 16.4698V16.2933L24.8072 16.3004L25.0748 16.3207L25.3383 16.3543L25.5976 16.4005L25.8525 16.4596L26.1026 16.5304L26.3471 16.6131L26.5863 16.7077L26.8197 16.813L27.0466 16.9294L27.2667 17.0562L27.4807 17.193L27.687 17.34L27.8859 17.4965L28.077 17.6619L28.2599 17.8363L28.4342 18.0189L28.5996 18.2105L28.7561 18.4092L28.9027 18.6155L29.0395 18.8294L29.1661 19.0498L29.2825 19.2769L29.388 19.5105L29.4824 19.7497L29.5651 19.9945L29.6359 20.2444L29.6947 20.4992L29.7414 20.7585L29.7745 21.0222L29.7949 21.2896L29.8016 21.5603ZM29.6259 25.3167V21.5603H29.8016V25.3167H29.6259ZM29.6259 25.3167H29.8018V25.4048H29.6259V25.3167ZM26.2155 25.316H26.3914V25.4039H26.2155V25.316ZM26.2144 22.407H26.3907L26.3914 25.316H26.2155L26.2148 22.407H26.2144ZM24.8405 21.0334V20.8575L24.9199 20.8595L24.9986 20.8653L25.0764 20.8749L25.1528 20.889L25.2277 20.9062L25.3015 20.927L25.3739 20.9516L25.4441 20.9793L25.5129 21.0104L25.5798 21.0446L25.6446 21.0819L25.7076 21.1222L25.7684 21.1653L25.8265 21.2113L25.8831 21.2601L25.937 21.3115L25.9884 21.3651L26.0369 21.4217L26.0831 21.48L26.1263 21.5408L26.1665 21.6039L26.2036 21.6687L26.2378 21.7353L26.2691 21.8041L26.2968 21.8743L26.3212 21.9463L26.342 22.0201L26.3592 22.095L26.3731 22.1714L26.3827 22.249L26.3887 22.3277L26.3907 22.407H26.2144L26.2128 22.3359L26.2077 22.2664L26.1987 22.1978L26.1869 22.1303L26.1714 22.0637L26.1529 21.9988L26.1312 21.9351L26.1066 21.8725L26.0793 21.812L26.0492 21.7527L26.0159 21.6948L25.9801 21.6394L25.9417 21.5855L25.901 21.5335L25.8578 21.4838L25.8122 21.4362L25.7646 21.3904L25.715 21.3473L25.6629 21.3066L25.609 21.2683L25.5534 21.2324L25.4957 21.1993L25.4363 21.1689L25.3759 21.1414L25.3131 21.1168L25.2496 21.0953L25.1843 21.0766L25.1177 21.0614L25.0502 21.0495L24.9814 21.0406L24.9116 21.0352L24.8405 21.0334ZM24.102 20.86L24.8405 20.8575V21.0334L24.102 21.0357V20.86ZM24.102 20.86V21.0357L24.0142 21.0359V20.86H24.102Z" fill="#DA2427"/>
<path d="M8.82821 24.4362L8.87247 24.4803V25.0152H8.78418V24.4803L8.82821 24.4362ZM8.78418 24.4803V24.4362H8.82821L8.78418 24.4803ZM9.06225 24.5245H8.82821V24.4362H9.06225V24.5245ZM9.29494 24.6217H9.20665V24.6153L9.20643 24.609L9.20576 24.6032L9.20509 24.5976L9.20419 24.5922L9.20285 24.5873L9.20173 24.5829L9.20017 24.5784L9.1986 24.5746L9.19637 24.5708L9.19458 24.5672L9.19234 24.5641L9.19011 24.5609L9.1872 24.5578L9.18474 24.5551L9.18117 24.5522L9.17804 24.5495L9.17379 24.5466L9.16932 24.5442L9.1644 24.5415L9.15926 24.5393L9.15345 24.537L9.14674 24.5348L9.14004 24.5326L9.13244 24.531L9.12394 24.5292L9.11523 24.5279L9.10584 24.5265L9.096 24.5256L9.0855 24.525L9.0741 24.5245H9.06225V24.4362L9.07611 24.4364L9.08952 24.4371L9.10293 24.4378L9.11567 24.4391L9.12797 24.4407L9.13981 24.4427L9.15099 24.4449L9.16217 24.4476L9.17312 24.4505L9.1834 24.4541L9.19346 24.4581L9.20307 24.4626L9.21224 24.4671L9.22118 24.4724L9.22923 24.478L9.2375 24.4843L9.24465 24.4908L9.25203 24.4981L9.25829 24.5055L9.2641 24.5131L9.26969 24.5214L9.27438 24.5297L9.27863 24.5381L9.2822 24.5471L9.28533 24.556L9.28801 24.5652L9.29025 24.5744L9.29204 24.5837L9.29338 24.5929L9.29427 24.6025L9.29472 24.6121L9.29494 24.6217ZM9.08371 24.8122V24.7239L9.08281 24.7241L9.09064 24.7239L9.09779 24.7232L9.10539 24.7228L9.1121 24.7219L9.1188 24.7208L9.12551 24.7197L9.13177 24.7183L9.1378 24.7167L9.14339 24.715L9.14898 24.7132L9.15412 24.7109L9.15881 24.7087L9.16351 24.7065L9.16798 24.704L9.172 24.7013L9.17558 24.6986L9.17938 24.6957L9.18251 24.6926L9.18564 24.6895L9.18832 24.6861L9.191 24.6825L9.19346 24.679L9.1957 24.6747L9.19793 24.6705L9.19972 24.666L9.20151 24.6606L9.20307 24.6555L9.20419 24.6497L9.20531 24.6434L9.2062 24.6367L9.20665 24.6298V24.6217H9.29494L9.2945 24.6331L9.29383 24.6445L9.29249 24.6557L9.2907 24.6665L9.28846 24.677L9.28556 24.6872L9.2822 24.6969L9.27818 24.7065L9.27371 24.7159L9.26857 24.7243L9.2632 24.7328L9.25739 24.7409L9.25069 24.7485L9.24398 24.7554L9.23683 24.7621L9.22967 24.7682L9.22163 24.774L9.2138 24.7791L9.20553 24.7836L9.19726 24.7881L9.18832 24.7923L9.17938 24.7954L9.17044 24.7988L9.1615 24.8015L9.15211 24.8037L9.14272 24.8059L9.13333 24.8077L9.12372 24.8091L9.11389 24.8102L9.10427 24.8113L9.09444 24.8117L9.0846 24.812L9.08371 24.8122ZM8.82821 24.7239H9.08371V24.8122H8.82821V24.7239ZM9.20464 25.0333L9.04861 24.7941L9.12238 24.746L9.2784 24.9852L9.20464 25.0333Z" fill="white"/>
<path d="M8.4799 24.748H8.3916L8.3925 24.7167L8.39495 24.6854L8.39875 24.6548L8.40434 24.6246L8.41105 24.5949L8.41932 24.5658L8.42893 24.5372L8.44011 24.5093L8.4524 24.4825L8.46581 24.4556L8.48079 24.4301L8.49644 24.4051L8.51365 24.381L8.53198 24.3579L8.5512 24.3356L8.57132 24.3144L8.59278 24.2942L8.61513 24.2748L8.63815 24.2565L8.6623 24.2395L8.68733 24.2236L8.71281 24.2086L8.73964 24.1952L8.76646 24.1829L8.7944 24.1717L8.82301 24.1621L8.85207 24.1541L8.88158 24.1474L8.91198 24.1416L8.9426 24.1378L8.9739 24.1355L9.00519 24.1346V24.2227L8.97792 24.2234L8.9511 24.2254L8.92494 24.2287L8.89924 24.2332L8.87375 24.2393L8.84894 24.2464L8.82435 24.2547L8.80066 24.2638L8.77741 24.2743L8.75506 24.2862L8.73271 24.2987L8.71147 24.3123L8.69091 24.3271L8.67124 24.3427L8.65201 24.3591L8.63391 24.3767L8.61625 24.3948L8.59993 24.4138L8.58428 24.4339L8.56953 24.4543L8.5559 24.4755L8.54315 24.4979L8.53153 24.5202L8.52102 24.5435L8.51164 24.5672L8.50337 24.5918L8.49621 24.6166L8.4904 24.6421L8.48593 24.6678L8.48258 24.6941L8.48034 24.721L8.4799 24.748ZM9.00519 25.2733V25.3614L8.97367 25.3605L8.94238 25.3582L8.91175 25.3544L8.88158 25.3489L8.85185 25.3421L8.82279 25.3339L8.7944 25.3243L8.76646 25.3131L8.73941 25.3008L8.71259 25.2874L8.68711 25.2726L8.6623 25.2568L8.63815 25.2395L8.61513 25.2214L8.59278 25.2022L8.57154 25.1821L8.5512 25.1606L8.53198 25.1383L8.51387 25.1153L8.49644 25.0911L8.48079 25.0663L8.46581 25.0406L8.4524 25.014L8.44011 24.987L8.42893 24.959L8.41932 24.9304L8.41105 24.9013L8.40434 24.8716L8.39875 24.8414L8.39495 24.8106L8.39272 24.7793L8.3916 24.748H8.4799L8.48057 24.7753L8.48258 24.8021L8.48593 24.8283L8.4904 24.8544L8.49621 24.8797L8.50337 24.9047L8.51164 24.9291L8.52102 24.9528L8.53153 24.9762L8.54338 24.9986L8.5559 25.0207L8.56953 25.0419L8.58406 25.0625L8.59971 25.0826L8.61625 25.1014L8.63368 25.1195L8.65201 25.1369L8.67101 25.1535L8.69113 25.1691L8.71147 25.1837L8.73271 25.1975L8.75484 25.2098L8.77719 25.2217L8.80066 25.2322L8.82435 25.2416L8.84894 25.2496L8.87353 25.2568L8.89924 25.2626L8.92494 25.267L8.9511 25.2706L8.97792 25.2726L9.00519 25.2733ZM9.53026 24.748H9.61855L9.61744 24.7793L9.6152 24.8106L9.6114 24.8414L9.60581 24.8716L9.59911 24.9013L9.59084 24.9304L9.58122 24.959L9.5705 24.987L9.55798 25.014L9.54457 25.0408L9.52981 25.0663L9.51417 25.0909L9.49695 25.1153L9.47885 25.1383L9.45963 25.1606L9.43951 25.1819L9.41805 25.202L9.3957 25.2214L9.37267 25.2393L9.34875 25.2568L9.32372 25.2724L9.29801 25.2874L9.27141 25.3008L9.24437 25.3131L9.21642 25.3243L9.18781 25.3337L9.15875 25.3419L9.1288 25.3486L9.09862 25.3544L9.06778 25.358L9.03648 25.3605L9.00519 25.3614V25.2733L9.03224 25.2726L9.05906 25.2704L9.08544 25.267L9.11159 25.2626L9.13685 25.2568L9.16188 25.2496L9.18647 25.2413L9.21017 25.2322L9.23364 25.2217L9.25599 25.2098L9.27834 25.1975L9.29935 25.1837L9.31992 25.1691L9.33959 25.1535L9.35881 25.1369L9.37692 25.1195L9.39435 25.1014L9.4109 25.0824L9.42654 25.0623L9.44085 25.0422L9.45471 25.0207L9.46723 24.9986L9.47885 24.9762L9.48913 24.9528L9.49852 24.9291L9.50679 24.9045L9.51372 24.8797L9.51975 24.8544L9.52423 24.8283L9.52758 24.8019L9.52981 24.7753L9.53026 24.748ZM9.00519 24.2227V24.1346L9.03671 24.1355L9.068 24.1378L9.09862 24.1416L9.1288 24.1472L9.15875 24.1539L9.18781 24.1621L9.21642 24.172L9.24437 24.1829L9.27141 24.1952L9.29824 24.2086L9.32372 24.2236L9.34875 24.2393L9.37267 24.2567L9.39592 24.2746L9.41805 24.294L9.43928 24.3144L9.4594 24.3358L9.47885 24.3582L9.49695 24.3812L9.51394 24.4051L9.52981 24.4301L9.54479 24.4559L9.5582 24.4822L9.57027 24.5093L9.58145 24.5372L9.59084 24.5658L9.59933 24.5949L9.60604 24.6246L9.6114 24.6548L9.6152 24.6854L9.61744 24.7167L9.61855 24.748H9.53026L9.52959 24.7207L9.52758 24.6939L9.52423 24.668L9.51975 24.6421L9.51372 24.6166L9.50701 24.5918L9.49852 24.5672L9.48935 24.5435L9.47885 24.5202L9.46723 24.4974L9.45471 24.4755L9.44085 24.4543L9.42632 24.4335L9.41067 24.4138L9.39435 24.3946L9.37692 24.3765L9.35881 24.3593L9.33959 24.3427L9.31992 24.3271L9.29935 24.3126L9.27812 24.2987L9.25599 24.2862L9.23364 24.2746L9.21017 24.2638L9.18647 24.2547L9.16188 24.2464L9.13707 24.2393L9.11159 24.2334L9.08566 24.229L9.05928 24.2254L9.03246 24.2232L9.00519 24.2227Z" fill="white"/>
</g>
<defs>
<clipPath id="clip0_46_129">
<rect width="38" height="38" fill="white"/>
</clipPath>
</defs>
</svg>
